PathFileType	4	(x/y/z)	S09_P20_T27
DataRate	CameraRate	NumFrames	NumMarkers	Units	OrigDataRate	OrigDataStartFrame	OrigNumFrames
240	240	5	51	mm	240	99	394
Frame#	Time	Sternum			R.Acromium			L.Acromium			Top.Head			R.ASIS			L.ASIS			R.PSIS			L.PSIS			R.Great.Tro			L.Great.Tro			R.Iliac.Crest			L.Iliac.Crest			V.Sacral			R.Thigh.Upper.Post			R.Thigh.Lower.Ant			R.Thigh.Lower.Post			R.Thigh.Upper.Ant			R.Knee.Lat			R.Knee.Med			R.Shank.Upper.Post			R.Shank.Lower.Ant			R.Shank.Lower.Post			R.Shank.Upper.Ant			R.Ankle.Lat			R.Ankle.Med			R.Heel.Upper			R.Heel.Med			R.Heel.Lat			R.Toe.Lat			R.Toe.Med			R.Toe.Tip			L.Thigh.Upper.Post			L.Thigh.Lower.Ant			L.Thigh.Lower.Post			L.Thigh.Upper.Ant			L.Knee.Lat			L.Knee.Med			L.Shank.Upper.Post			L.Shank.Lower.Ant			L.Shank.Lower.Post			L.Shank.Upper.Ant			L.Ankle.Lat			L.Ankle.Med			L.Heel.Upper			L.Heel.Med			L.Heel.Lat			L.Toe.Lat			L.Toe.Med			L.Toe.Tip			Cervical.Spine			Back			
		X1	Y1	Z1	X2	Y2	Z2	X3	Y3	Z3	X4	Y4	Z4	X5	Y5	Z5	X6	Y6	Z6	X7	Y7	Z7	X8	Y8	Z8	X9	Y9	Z9	X10	Y10	Z10	X11	Y11	Z11	X12	Y12	Z12	X13	Y13	Z13	X14	Y14	Z14	X15	Y15	Z15	X16	Y16	Z16	X17	Y17	Z17	X18	Y18	Z18	X19	Y19	Z19	X20	Y20	Z20	X21	Y21	Z21	X22	Y22	Z22	X23	Y23	Z23	X24	Y24	Z24	X25	Y25	Z25	X26	Y26	Z26	X27	Y27	Z27	X28	Y28	Z28	X29	Y29	Z29	X30	Y30	Z30	X31	Y31	Z31	X32	Y32	Z32	X33	Y33	Z33	X34	Y34	Z34	X35	Y35	Z35	X36	Y36	Z36	X37	Y37	Z37	X38	Y38	Z38	X39	Y39	Z39	X40	Y40	Z40	X41	Y41	Z41	X42	Y42	Z42	X43	Y43	Z43	X44	Y44	Z44	X45	Y45	Z45	X46	Y46	Z46	X47	Y47	Z47	X48	Y48	Z48	X49	Y49	Z49	X50	Y50	Z50	X51	Y51	Z51	

99	0.40833	-814.85	1194.6	320.55	-948.26	1438.8	461.95	-931.48	1446.3	150.8	-918.57	1750.2	306.36	-881.59	1027.8	415.61	-884.94	1028	170.63	-1104.1	1046.9	342.71	-1097.6	1055	253.8	-954.38	941.65	489.69	-965.48	939.83	105.33	-970.61	1103.8	459.14	-983.46	1126.7	139.46	-1117.9	1014.8	293.78	-868.33	708.08	472.24	-764.11	637.53	433.91	-840.17	619.27	449.44	-796.78	720.1	458.48	-762.14	554.73	431.04	-761.2	543.2	308.58	-815.12	374.79	438.3	-739.97	323.06	435.24	-807.3	299.15	430.27	-753.29	395.44	444.38	-756.08	117.12	420.05	-719.02	132.08	339.11	-808.98	86.922	359.09	-787.98	57.873	333.7	-806.16	57.885	395.71	-657.91	69.985	471.78	-598.58	82.759	378.16	-562.85	108.04	426.71	-1059.1	695.19	172.4	-988.55	588.96	171.49	-1054.2	606.8	193.5	-992.5	675.57	146.26	-1016.8	510.87	187.85	-985.61	525.74	316.82	-1088.2	388.07	186.59	-1043.2	288.41	203.39	-1100.1	314.09	197.28	-1029.7	364.45	191.79	-1122	111.97	236.19	-1099	111.93	328.74	-1197.3	81.273	295.39	-1184.6	57.015	327.04	-1200.2	52.832	267.38	-1030.4	41.202	203.16	-986.62	41.656	308.68	-936.85	50.286	245.88	-1029.9	1495.2	311.41	-1077.9	1232.8	289.87
100	0.4125	-809.49	1193.8	320.39	-943.11	1438.2	461.8	-926.09	1445.7	150.64	-913.34	1749.6	306.21	-876.03	1027.1	415.37	-879.91	1027.4	170.34	-1098.7	1046.6	342.81	-1092.3	1054.7	253.93	-949.21	940.82	489.31	-960.92	939.42	105.15	-964.96	1103.2	459.04	-978.46	1126.1	139.36	-1112.6	1014.6	293.94	-864.61	706.71	471.72	-760.82	635.69	433.3	-836.99	617.83	448.7	-793.03	718.32	457.96	-758.73	553.56	430.11	-758.21	541.86	307.34	-807.21	372.75	437.54	-730.75	323.02	434.25	-797.37	297.31	429.56	-745.97	395.03	443.39	-740.72	116.18	419.31	-704.41	132.43	338.33	-793.03	84.564	358.53	-771.21	56.226	332.93	-789.18	55.455	394.98	-640.98	71.638	470.49	-582.65	86.55	376.88	-547.38	112.81	425.25	-1055.5	695.31	172.58	-985.5	588.73	171.39	-1051.2	606.96	193.58	-989.04	675.38	146.2	-1014.1	510.76	187.75	-982.42	525.46	316.63	-1086.1	388.38	186.6	-1041.7	288.42	203.33	-1098.5	314.47	197.3	-1027.8	364.37	191.71	-1121.5	112.44	236.29	-1098.6	112.15	328.66	-1196.9	81.932	295.48	-1184.3	57.618	327.13	-1200	53.498	267.49	-1030.3	41.222	203.22	-986.45	41.478	308.7	-936.6	49.88	245.87	-1024.5	1494.7	311.15	-1072.6	1232.2	289.71
101	0.41667	-804.12	1193	320.25	-937.95	1437.6	461.66	-920.7	1445	150.49	-908.11	1749	306.06	-870.45	1026.4	415.14	-874.85	1026.8	170.04	-1093.3	1046.3	342.93	-1087	1054.5	254.08	-944.05	939.96	488.93	-956.36	939	104.98	-959.29	1102.5	458.96	-973.44	1125.6	139.28	-1107.4	1014.3	294.12	-860.93	705.32	471.23	-757.57	633.79	432.73	-833.87	616.36	447.98	-789.3	716.47	457.51	-755.37	552.35	429.21	-755.3	540.48	306.08	-799.42	370.81	436.75	-721.71	323.06	433.25	-787.62	295.62	428.83	-738.8	394.67	442.39	-725.65	115.47	418.54	-690.16	132.98	337.52	-777.38	82.454	357.97	-754.79	54.838	332.15	-772.49	53.298	394.25	-624.39	73.533	469.12	-567.17	90.546	375.47	-532.35	117.75	423.67	-1051.9	695.41	172.79	-982.39	588.49	171.27	-1048.1	607.13	193.66	-985.56	675.18	146.14	-1011.3	510.64	187.65	-979.15	525.15	316.44	-1084	388.68	186.59	-1040.2	288.42	203.26	-1096.8	314.86	197.32	-1025.8	364.28	191.63	-1121	112.94	236.38	-1098.1	112.4	328.57	-1196.6	82.631	295.56	-1184.1	58.258	327.21	-1199.7	54.199	267.58	-1030.2	41.24	203.28	-986.28	41.314	308.71	-936.34	49.475	245.86	-1019.2	1494.1	310.9	-1067.3	1231.6	289.56
102	0.42083	-798.75	1192.2	320.11	-932.78	1436.9	461.52	-915.33	1444.4	150.35	-902.89	1748.4	305.92	-864.84	1025.7	414.91	-869.76	1026.2	169.74	-1087.9	1045.9	343.07	-1081.7	1054.2	254.25	-938.89	939.08	488.55	-951.8	938.57	104.82	-953.59	1101.8	458.91	-968.41	1125.1	139.21	-1102.2	1014.1	294.32	-857.28	703.9	470.77	-754.33	631.85	432.21	-830.77	614.87	447.26	-785.56	714.58	457.12	-752.03	551.14	428.33	-752.45	539.09	304.82	-791.75	368.98	435.96	-712.88	323.17	432.26	-778.06	294.06	428.08	-731.75	394.35	441.38	-710.91	114.97	417.74	-676.3	133.7	336.66	-762.09	80.582	357.39	-738.76	53.695	331.35	-756.15	51.401	393.51	-608.2	75.641	467.68	-552.15	94.711	373.94	-517.8	122.82	421.96	-1048.2	695.51	173.01	-979.24	588.25	171.15	-1045.1	607.3	193.76	-982.04	674.97	146.07	-1008.4	510.5	187.55	-975.78	524.82	316.23	-1081.8	389	186.57	-1038.6	288.42	203.18	-1095	315.26	197.33	-1023.8	364.19	191.55	-1120.4	113.46	236.45	-1097.7	112.66	328.46	-1196.3	83.37	295.62	-1183.8	58.937	327.27	-1199.5	54.936	267.66	-1030	41.258	203.33	-986.11	41.163	308.71	-936.08	49.073	245.84	-1013.9	1493.4	310.67	-1062	1231	289.43
103	0.425	-793.36	1191.4	319.99	-927.59	1436.3	461.39	-909.97	1443.7	150.22	-897.66	1747.8	305.78	-859.21	1025	414.69	-864.65	1025.5	169.45	-1082.4	1045.6	343.23	-1076.4	1053.9	254.44	-933.73	938.18	488.19	-947.23	938.13	104.66	-947.88	1101.1	458.88	-963.36	1124.5	139.16	-1096.9	1013.9	294.54	-853.61	702.46	470.33	-751.09	629.88	431.73	-827.68	613.37	446.55	-781.81	712.66	456.81	-748.67	549.93	427.48	-749.65	537.69	303.56	-784.2	367.25	435.14	-704.25	323.33	431.26	-768.7	292.63	427.32	-724.84	394.07	440.38	-696.55	114.66	416.9	-662.87	134.55	335.75	-747.19	78.933	356.8	-723.18	52.776	330.52	-740.2	49.752	392.75	-592.46	77.927	466.17	-537.63	99.009	372.27	-503.75	127.97	420.15	-1044.5	695.58	173.25	-976.03	588	171.03	-1042.1	607.48	193.87	-978.49	674.76	146.01	-1005.4	510.35	187.45	-972.32	524.47	316.01	-1079.5	389.31	186.54	-1037	288.43	203.09	-1093.2	315.67	197.33	-1021.7	364.08	191.46	-1119.9	114	236.51	-1097.2	112.94	328.33	-1195.9	84.153	295.66	-1183.5	59.655	327.32	-1199.3	55.709	267.73	-1029.9	41.276	203.38	-985.93	41.027	308.71	-935.82	48.675	245.82	-1008.6	1492.8	310.44	-1056.7	1230.3	289.33
